<?xml version="1.0" encoding="UTF-8"?>
<!DOCTYPE svg PUBLIC "-//W3C//DTD SVG 1.1//EN" "http://www.w3.org/Graphics/SVG/1.1/DTD/svg11.dtd">
<!-- Creator: CorelDRAW 2018 (64 Bit Versão de avaliação) -->
<svg xmlns="http://www.w3.org/2000/svg" xml:space="preserve" width="1000px" height="242px" version="1.1" style="shape-rendering:geometricPrecision; text-rendering:geometricPrecision; image-rendering:optimizeQuality; fill-rule:evenodd; clip-rule:evenodd"
viewBox="0 0 1000 241.81"
 xmlns:xlink="http://www.w3.org/1999/xlink">
 <defs>
  <style type="text/css">
   <![CDATA[
    .fil1 {fill:white;fill-rule:nonzero}
    .fil0 {fill:url(#id0)}
   ]]>
  </style>
  <linearGradient id="id0" gradientUnits="userSpaceOnUse" x1="909.65" y1="235.45" x2="821.38" y2="6.37">
   <stop offset="0" style="stop-opacity:1; stop-color:#102FAD"/>
   <stop offset="1" style="stop-opacity:1; stop-color:#0087E8"/>
  </linearGradient>
 </defs>
 <g id="Camada_x0020_1">
  <metadata id="CorelCorpID_0Corel-Layer"/>
  <g id="_2438786373792">
   <path class="fil0" d="M731.03 234.11l220.47 -220.46 7.69 7.7 -220.46 220.46 -7.7 -7.7zm45.68 -108.28l125.83 -125.83 7.7 7.7 -125.84 125.83 -7.69 -7.7zm21.27 0l119.81 -119.81 7.7 7.69 -119.82 119.82 -7.69 -7.7zm20.67 0l113.68 -113.69 7.7 7.7 -113.69 113.69 -7.69 -7.7zm107.35 16.67l45.36 -45.36 7.69 7.7 -45.36 45.36 -7.69 -7.7zm-44.06 23.38l68.74 -68.74 7.7 7.7 -68.74 68.74 -7.7 -7.7zm-34.25 13.59l82.32 -82.33 7.7 7.7 -82.32 82.33 -7.7 -7.7zm-34.6 13.93l179.21 -179.22 7.7 7.7 -179.21 179.22 -7.7 -7.7zm-46.63 25.95l206.41 -206.4 7.69 7.7 -206.4 206.4 -7.7 -7.7z"/>
   <path class="fil1" d="M63.43 80.22c0.32,-1.72 1.21,-3.22 2.66,-4.51 1.45,-1.3 3.1,-1.94 4.92,-1.94l35.51 0 4.04 -22.6 -106.53 0 -4.03 22.6 35.51 0c1.83,0 3.25,0.64 4.27,1.94 1.03,1.29 1.38,2.79 1.05,4.51l-13.88 77.48 22.6 0 13.88 -77.48zm649.54 88.77c1.83,0 3.47,-0.64 4.92,-1.93 1.46,-1.29 2.34,-2.8 2.67,-4.55l1.04 -4.81 -54.84 0c-3.66,0 -6.51,-1.27 -8.56,-3.8 -2.04,-2.53 -2.74,-5.57 -2.1,-9.12l11.6 -64.56c0.64,-3.55 2.45,-6.59 5.41,-9.11 2.95,-2.53 6.21,-3.8 9.76,-3.8l77.47 0 -20.17 112.98c-0.54,2.69 -1.91,4.98 -4.12,6.86 -2.21,1.88 -4.65,2.82 -7.34,2.82l-80.7 0 3.71 -20.98 61.25 0zm12.64 -33.89l8.07 -45.19 -38.68 0c-1.83,0 -3.47,0.64 -4.92,1.94 -1.45,1.29 -2.31,2.79 -2.64,4.51l-5.81 32.28c-0.32,1.73 0.03,3.23 1.05,4.52 1.02,1.29 2.45,1.94 4.28,1.94l38.65 0zm-87.45 9.68c-0.64,3.55 -2.45,6.59 -5.4,9.12 -2.96,2.53 -6.22,3.8 -9.77,3.8l-64.56 0c-3.66,0 -6.51,-1.27 -8.55,-3.8 -2.05,-2.53 -2.75,-5.57 -2.1,-9.12l13.88 -77.47 22.62 0 -10.97 61.33c-0.32,1.73 0.03,3.23 1.05,4.52 1.02,1.29 2.45,1.94 4.25,1.94l32.25 0c1.83,0 3.47,-0.65 4.92,-1.94 1.43,-1.29 2.32,-2.79 2.64,-4.52l11 -61.33 22.62 0 -13.88 77.47zm-111.55 -93.61l22.62 0 -19.04 106.53 -22.62 0 19.04 -106.53zm-29.99 93.61c-0.65,3.55 -2.45,6.59 -5.41,9.12 -2.96,2.53 -6.21,3.8 -9.76,3.8l-54.88 0 -2.88 16.13 -22.62 0 19.05 -106.52 77.47 0c3.55,0 6.37,1.27 8.47,3.8 2.1,2.52 2.82,5.56 2.18,9.11l-11.62 64.56zm-19.72 -16.14l5.81 -32.28c0.32,-1.72 -0.03,-3.22 -1.05,-4.51 -1.02,-1.3 -2.45,-1.94 -4.28,-1.94l-38.68 0 -8.07 45.19 38.68 0c1.83,0 3.47,-0.65 4.93,-1.94 1.45,-1.29 2.34,-2.79 2.66,-4.52zm-69.86 -52.13l-14.85 81.19 -22.81 0 11.41 -61.36c0.32,-1.72 -0.03,-3.2 -1.05,-4.49 -1.02,-1.3 -2.45,-1.94 -4.28,-1.94l-32.17 0c-1.83,0 -3.44,0.62 -4.9,1.85 -1.45,1.24 -2.33,2.78 -2.66,4.6l-11.3 61.34 -22.62 0 19.05 -106.53 22.59 0 -1.45 9.69c-0.22,1.83 0.16,3.36 1.13,4.6 0.97,1.23 2.37,1.85 4.2,1.85l54.87 0c1.83,0 3.26,0.65 4.28,1.94 1.02,1.29 1.37,2.8 1.05,4.52l-0.49 2.74zm-173.82 -9.2c-3.55,0 -6.81,1.27 -9.77,3.8 -2.96,2.52 -4.76,5.56 -5.4,9.11l-11.62 64.56c-0.65,3.55 0.05,6.59 2.09,9.12 2.05,2.53 4.9,3.8 8.56,3.8l77.47 0 4.03 -22.6 -61.33 0c-1.83,0 -3.25,-0.65 -4.27,-1.94 -1.03,-1.29 -1.38,-2.79 -1.05,-4.52l5.81 -32.28c0.32,-1.72 1.21,-3.22 2.66,-4.51 1.45,-1.3 3.09,-1.94 4.92,-1.94l61.33 0 4.04 -22.6 -77.47 0zm-42.77 90.39l-77.47 0c-3.66,0 -6.51,-1.27 -8.56,-3.8 -2.04,-2.53 -2.74,-5.57 -2.09,-9.12l11.62 -64.56c0.64,-3.55 2.44,-6.59 5.4,-9.11 2.96,-2.53 6.22,-3.8 9.77,-3.8l64.56 0c3.65,0 6.51,1.27 8.55,3.8 2.04,2.52 2.74,5.56 2.1,9.11l-6.13 33.9c-0.65,3.55 -2.45,6.59 -5.41,9.12 -2.96,2.53 -6.22,3.79 -9.77,3.79l-54.87 0 -0.3 1.61c-0.32,1.73 0.03,3.23 1.05,4.52 1.02,1.29 2.45,1.94 4.28,1.94l61.3 0 -4.03 22.6zm-11.95 -59.72l0.33 -1.62c0.32,-1.72 -0.03,-3.22 -1.05,-4.51 -1.02,-1.3 -2.45,-1.94 -4.28,-1.94l-32.28 0c-1.83,0 -3.47,0.64 -4.92,1.94 -1.45,1.29 -2.34,2.79 -2.66,4.51l-0.33 1.62c-0.32,1.72 0.03,3.23 1.05,4.52 1.02,1.29 2.45,1.93 4.28,1.93l32.28 0c1.83,0 3.47,-0.64 4.92,-1.93 1.45,-1.29 2.34,-2.8 2.66,-4.52z"/>
  </g>
 </g>
</svg>
