<?xml version="1.0" encoding="UTF-8"?>
<!DOCTYPE svg PUBLIC "-//W3C//DTD SVG 1.1//EN" "http://www.w3.org/Graphics/SVG/1.1/DTD/svg11.dtd">
<!-- Creator: CorelDRAW 2018 (64 Bit Versão de avaliação) -->
<svg xmlns="http://www.w3.org/2000/svg" xml:space="preserve" width="150px" height="171px" version="1.1" style="shape-rendering:geometricPrecision; text-rendering:geometricPrecision; image-rendering:optimizeQuality; fill-rule:evenodd; clip-rule:evenodd"
viewBox="0 0 146.18 167.06"
 xmlns:xlink="http://www.w3.org/1999/xlink">
 <defs>
  <style type="text/css">
   <![CDATA[
    .fil4 {fill:#FEFEFE;fill-rule:nonzero}
    .fil2 {fill:#A1ACB5;fill-rule:nonzero}
    .fil1 {fill:#C6CCD1;fill-rule:nonzero}
    .fil0 {fill:#E0E2E3;fill-rule:nonzero}
    .fil3 {fill:#FF3B21;fill-rule:nonzero}
   ]]>
  </style>
 </defs>
 <g id="Camada_x0020_1">
  <metadata id="CorelCorpID_0Corel-Layer"/>
  <g id="_1887051173232">
   <path class="fil0" d="M31.32 0c-5.74,0 -10.44,4.7 -10.44,10.44l0 146.18c0,5.74 4.7,10.44 10.44,10.44l104.41 0c5.75,0 10.45,-4.7 10.45,-10.44l0 -114.86 -41.77 -41.76 -73.09 0z"/>
   <polygon class="fil1" points="146.18,73.09 114.85,41.76 130.51,30.72 146.18,41.76 "/>
   <path class="fil2" d="M114.85 41.76l31.33 0 -41.77 -41.76 0 31.32c0,5.75 4.7,10.44 10.44,10.44z"/>
   <path class="fil3" d="M125.29 135.73c0,2.88 -2.35,5.22 -5.22,5.22l-114.85 0c-2.87,0 -5.22,-2.34 -5.22,-5.22l0 -52.2c0,-2.87 2.35,-5.22 5.22,-5.22l114.85 0c2.87,0 5.22,2.35 5.22,5.22l0 52.2z"/>
   <path class="fil4" d="M28.26 101.29l0 10.4 6.97 0c2.8,0 5.02,-2.47 5.02,-5.06 0,-2.92 -2.22,-5.34 -5.02,-5.34l-6.97 0zm-5.5 -2.38c0,-1.37 1.08,-2.88 2.83,-2.88l9.64 0c5.43,0 10.32,3.64 10.32,10.6 0,6.6 -4.89,10.27 -10.32,10.27l-6.97 0 0 5.52c0,1.83 -1.17,2.87 -2.67,2.87 -1.38,0 -2.83,-1.04 -2.83,-2.87l0 -23.51z"/>
   <path class="fil4" d="M56.36 101.5l0 18.7 6.92 0c11.27,0 11.78,-18.7 0,-18.7l-6.92 0zm-2.64 23.79c-1.37,0 -2.88,-0.75 -2.88,-2.58l0 -23.71c0,-1.5 1.51,-2.59 2.88,-2.59l9.56 0c19.08,0 18.66,28.88 0.38,28.88l-9.94 0z"/>
   <path class="fil4" d="M88.71 101.84l0 6.63 10.64 0c1.51,0 3.01,1.51 3.01,2.96 0,1.38 -1.5,2.51 -3.01,2.51l-10.64 0 0 8.76c0,1.47 -1.04,2.59 -2.5,2.59 -1.84,0 -2.96,-1.12 -2.96,-2.59l0 -23.71c0,-1.5 1.12,-2.59 2.96,-2.59l14.65 0c1.84,0 2.92,1.09 2.92,2.59 0,1.34 -1.08,2.84 -2.92,2.84l-12.15 0 0 0.01z"/>
   <path class="fil1" d="M120.07 140.95l-99.19 0 0 5.23 99.19 0c2.87,0 5.22,-2.35 5.22,-5.23l0 -5.22c0,2.88 -2.35,5.22 -5.22,5.22z"/>
  </g>
 </g>
</svg>
